<mxfile host="65bd71144e">
    <diagram id="QIV9C6ROLLLQnYYzU-eJ" name="Page-1">
        <mxGraphModel dx="640" dy="942" grid="1" gridSize="10" guides="1" tooltips="1" connect="1" arrows="1" fold="1" page="1" pageScale="1" pageWidth="850" pageHeight="1100" math="0" shadow="0">
            <root>
                <mxCell id="0"/>
                <mxCell id="1" parent="0"/>
                <mxCell id="2" value="Student&lt;br&gt;" style="shape=umlActor;verticalLabelPosition=bottom;verticalAlign=top;html=1;outlineConnect=0;" parent="1" vertex="1">
                    <mxGeometry x="320" y="230" width="60" height="110" as="geometry"/>
                </mxCell>
                <mxCell id="3" value="" style="rounded=0;whiteSpace=wrap;html=1;" parent="1" vertex="1">
                    <mxGeometry x="110" y="380" width="475" height="160" as="geometry"/>
                </mxCell>
                <mxCell id="4" value="University Academic Course Registration System" style="text;html=1;strokeColor=none;fillColor=none;align=center;verticalAlign=middle;whiteSpace=wrap;rounded=0;" parent="1" vertex="1">
                    <mxGeometry x="198" y="390" width="320" height="30" as="geometry"/>
                </mxCell>
                <mxCell id="5" value="Drop a course" style="ellipse;whiteSpace=wrap;html=1;" parent="1" vertex="1">
                    <mxGeometry x="130" y="420" width="120" height="80" as="geometry"/>
                </mxCell>
                <mxCell id="7" value="Register for a Course" style="ellipse;whiteSpace=wrap;html=1;" parent="1" vertex="1">
                    <mxGeometry x="280" y="430" width="140" height="80" as="geometry"/>
                </mxCell>
                <mxCell id="8" value="View Course Catalog" style="ellipse;whiteSpace=wrap;html=1;" parent="1" vertex="1">
                    <mxGeometry x="440" y="430" width="130" height="80" as="geometry"/>
                </mxCell>
                <mxCell id="11" value="" style="curved=1;endArrow=classic;html=1;entryX=0.5;entryY=0;entryDx=0;entryDy=0;" parent="1" source="2" target="5" edge="1">
                    <mxGeometry width="50" height="50" relative="1" as="geometry">
                        <mxPoint x="240" y="320" as="sourcePoint"/>
                        <mxPoint x="290" y="270" as="targetPoint"/>
                        <Array as="points">
                            <mxPoint x="290" y="310"/>
                            <mxPoint x="240" y="340"/>
                        </Array>
                    </mxGeometry>
                </mxCell>
                <mxCell id="12" value="" style="curved=1;endArrow=classic;html=1;" parent="1" target="8" edge="1">
                    <mxGeometry width="50" height="50" relative="1" as="geometry">
                        <mxPoint x="410" y="310" as="sourcePoint"/>
                        <mxPoint x="600" y="350" as="targetPoint"/>
                        <Array as="points">
                            <mxPoint x="490" y="320"/>
                        </Array>
                    </mxGeometry>
                </mxCell>
                <mxCell id="18" value="" style="endArrow=classic;html=1;" parent="1" edge="1">
                    <mxGeometry width="50" height="50" relative="1" as="geometry">
                        <mxPoint x="353" y="360" as="sourcePoint"/>
                        <mxPoint x="363" y="430" as="targetPoint"/>
                        <Array as="points"/>
                    </mxGeometry>
                </mxCell>
            </root>
        </mxGraphModel>
    </diagram>
</mxfile>
